# xmcd
#
# Track frame offsets: 
#        150
#        18903
#        32709
#        48983
#        66485
#        81749
#        95572
#        110099
#        119831
#        134308
#        151648
#        161670
#        174756
#        186938
#        200413
#
# Disc length: 2855 seconds
#
# Revision: 2
# Processed by: cddbd v1.5.2PL0 Copyright (c) Steve Scherf et al.
# Submitted via: ExactAudioCopyFreeDBPlugin 1.0
#
DISCID=d10b250f
DTITLE=Yancey de Veer - Cowboy Ride
DYEAR=2015
DGENRE=country
TTITLE0=Cowboy Paintbrush
TTITLE1=Boutte Blon
TTITLE2=Anasazi People
TTITLE3=Comboy Lament
TTITLE4=Buffalo Nickel
TTITLE5=Eyes That Sing
TTITLE6=Feel Her Pain
TTITLE7=Cowboys Sweetheart
TTITLE8=Winter Ground
TTITLE9=Golden Rocket
TTITLE10=Love is Everywhere
TTITLE11=Acadian Waltz
TTITLE12=Mamona Mama
TTITLE13=Whats Wrong
TTITLE14=Natchez Trace
EXTD=
EXTT0=
EXTT1=
EXTT2=
EXTT3=
EXTT4=
EXTT5=
EXTT6=
EXTT7=
EXTT8=
EXTT9=
EXTT10=
EXTT11=
EXTT12=
EXTT13=
EXTT14=
PLAYORDER=
